<?xml version="1.0" encoding="utf-8"?>
<!-- Generator: Adobe Illustrator 16.0.0, SVG Export Plug-In . SVG Version: 6.00 Build 0)  -->
<!DOCTYPE svg PUBLIC "-//W3C//DTD SVG 1.1//EN" "http://www.w3.org/Graphics/SVG/1.1/DTD/svg11.dtd">
<svg version="1.1" id="图层_3" xmlns="http://www.w3.org/2000/svg" xmlns:xlink="http://www.w3.org/1999/xlink" x="0px" y="0px"
	 width="192px" height="192px" viewBox="0 0 192 192" enable-background="new 0 0 192 192" xml:space="preserve">
<line fill="none" x1="18.797" y1="72.809" x2="178.266" y2="72.809"/>
<path fill="none" d="M47.532,75.53h51v51h-51V75.53z"/>
<g>
	<g>
		<path fill="#EA4335" d="M55.385,107.161c-12.354,0-22.345,9.991-22.345,22.345c0,16.757,22.345,41.495,22.345,41.495
			s22.343-24.738,22.343-41.495C77.729,117.152,67.737,107.161,55.385,107.161z"/>
		<path fill="#FFFFFF" d="M55.385,137.485c-4.406,0-7.981-3.576-7.981-7.979c0-4.405,3.576-7.981,7.981-7.981
			c4.403,0,7.978,3.576,7.978,7.981C63.363,133.909,59.789,137.485,55.385,137.485z"/>
	</g>
	<g>
		<path fill="#4285F4" d="M135.165,21.217c-12.574,0-22.744,10.169-22.744,22.744c0,17.057,22.744,42.237,22.744,42.237
			s22.744-25.18,22.744-42.237C157.909,31.387,147.738,21.217,135.165,21.217z"/>
		<path fill="#FFFFFF" d="M135.165,52.083c-4.484,0-8.122-3.64-8.122-8.123c0-4.484,3.639-8.123,8.122-8.123
			c4.482,0,8.122,3.64,8.122,8.123S139.647,52.083,135.165,52.083z"/>
	</g>
	<path fill="#FBBC05" d="M151.498,143.487c-0.014,15.193-12.329,27.505-27.52,27.513H62.067c0,0,5.297-6.877,10.658-13.756h51.253
		c7.592,0,13.763-6.18,13.763-13.757c0-7.592-6.179-13.763-13.763-13.763h-13.756c-15.189-0.019-27.5-12.324-27.521-27.513
		c0.014-15.195,12.326-27.511,27.521-27.529h9.99c3.558,4.578,7.104,9.164,10.643,13.756h-20.633
		c-7.586,0-13.757,6.18-13.757,13.763c0,7.578,6.18,13.757,13.757,13.757h13.756c15.194,0.01,27.512,12.326,27.52,27.521"/>
</g>
</svg>
