<?xml version="1.0" encoding="utf-8"?>
<!-- Generator: Adobe Illustrator 16.0.0, SVG Export Plug-In . SVG Version: 6.00 Build 0)  -->
<!DOCTYPE svg PUBLIC "-//W3C//DTD SVG 1.1//EN" "http://www.w3.org/Graphics/SVG/1.1/DTD/svg11.dtd">
<svg version="1.1" id="图层_3" xmlns="http://www.w3.org/2000/svg" xmlns:xlink="http://www.w3.org/1999/xlink" x="0px" y="0px"
	 width="192px" height="192px" viewBox="0 0 192 192" enable-background="new 0 0 192 192" xml:space="preserve">
<line fill="none" x1="18.797" y1="72.809" x2="178.266" y2="72.809"/>
<path fill="none" d="M47.532,75.53h51v51h-51V75.53z"/>
<path fill="#EA4335" d="M125.423,20.28H28.655c-4.645,0-8.407,3.763-8.407,8.406v96.769c0,4.645,3.762,8.406,8.406,8.406h96.768
	c4.646,0,8.407-3.762,8.407-8.406V28.686C133.83,24.043,130.068,20.28,125.423,20.28z"/>
<circle fill="#FBBC05" cx="134.123" cy="134.155" r="49.625"/>
<path fill="#FFFFFF" d="M77.039,45.151c-12.354,0-22.345,9.991-22.345,22.345c0,16.757,22.345,41.495,22.345,41.495
	s22.344-24.738,22.344-41.495C99.383,55.143,89.391,45.151,77.039,45.151z M77.039,75.476c-4.406,0-7.981-3.576-7.981-7.979
	c0-4.405,3.576-7.981,7.981-7.981c4.403,0,7.978,3.576,7.978,7.981C85.017,71.899,81.442,75.476,77.039,75.476z"/>
<path fill="#FFFFFF" d="M121.122,131.099l-12.192,12.223l12.192,12.225v-9.166h21.419v-6.111h-21.419V131.099z M163.93,124.989
	l-12.191-12.223v9.166h-21.42v6.109h21.419v9.168L163.93,124.989z"/>
</svg>
